<?xml version="1.0" encoding="UTF-8" standalone="no"?><!DOCTYPE svg PUBLIC "-//W3C//DTD SVG 1.1//EN" "http://www.w3.org/Graphics/SVG/1.1/DTD/svg11.dtd"><svg width="100%" height="100%" viewBox="0 0 3300 2550" version="1.1" xmlns="http://www.w3.org/2000/svg" xmlns:xlink="http://www.w3.org/1999/xlink" xml:space="preserve" xmlns:serif="http://www.serif.com/" style="fill-rule:evenodd;clip-rule:evenodd;stroke-linejoin:round;stroke-miterlimit:2;"><rect id="Página-2" serif:id="Página 2" x="0" y="0" width="3300" height="2550" style="fill:none;"/><g id="Capa-1" serif:id="Capa 1"><path d="M763.501,1028.966l-351.033,0l-31.288,143.183l202.029,0.112l-74.492,341.717l156.354,0l67.079,-341.638l0.021,0l31.329,-143.375Z" style="fill:#fff212;fill-rule:nonzero;"/><path d="M722.683,1513.98l351.029,0l31.3,-143.183l-202.029,-0.108l74.492,-341.721l-156.35,0l-67.079,341.638l-0.021,0l-31.342,143.375Z" style="fill:#fff212;fill-rule:nonzero;"/><path d="M1227.246,1056.591l57.108,0l-35.692,202.062l-57.112,0l35.696,-202.062Zm-36.625,-23.9l138.121,0l-8.071,45.008l-137.812,0l7.763,-45.008Z" style="fill:#fff212;fill-rule:nonzero;"/><path d="M1379.021,1145.054l52.454,-2.483l24.521,116.083l-56.492,0l-20.483,-113.6Zm-40.971,-112.362l79.771,0c13.033,0 24.367,2.433 33.983,7.296c9.625,4.862 16.917,12.054 21.883,21.571c4.967,9.521 7.45,20.487 7.45,32.9c0,15.729 -3.467,30.004 -10.396,42.833c-6.938,12.833 -16.763,22.967 -29.492,30.421c-12.721,7.446 -26.95,11.171 -42.675,11.171l-57.421,0l7.758,-41.279l45.008,0c10.137,0 17.637,-3.463 22.5,-10.4c4.858,-6.929 7.296,-15.875 7.296,-26.846c0,-7.862 -1.812,-13.763 -5.429,-17.696c-3.625,-3.925 -9.158,-5.896 -16.608,-5.896l-34.763,0l22.967,-14.9l-34.763,196.787l-56.8,0l39.729,-225.962Z" style="fill:#fff212;fill-rule:nonzero;"/><path d="M1497.588,1176.089l97.771,0l-7.45,41.592l-98.079,0l7.758,-41.592Zm46.246,-143.396l72.946,0l12.412,225.958l-56.492,0l-1.862,-206.717l9.312,0l-75.117,206.717l-52.763,0l91.562,-225.958Z" style="fill:#fff212;fill-rule:nonzero;"/><path d="M1674.499,1032.692l57.112,0l42.521,153.021l-11.796,1.862l27.625,-154.883l47.487,0l-39.725,225.962l-52.146,0l-42.213,-153.021l6.829,-1.862l-27.625,154.883l-47.8,0l39.729,-225.962Z" style="fill:#fff212;fill-rule:nonzero;"/><path d="M1842.103,1251.824c-13.037,-7.029 -22.658,-15.412 -28.867,-25.142l18.938,-39.108c6.617,8.279 14.117,15.208 22.5,20.796c8.383,5.588 16.188,8.383 23.433,8.383c4.758,0 8.95,-0.933 12.571,-2.796c3.621,-1.863 6.467,-4.446 8.537,-7.758c2.067,-3.312 3.1,-7.033 3.1,-11.175c0,-4.758 -1.858,-9.567 -5.583,-14.433c-3.729,-4.858 -9.212,-9.979 -16.45,-15.362l-5.279,-3.104c-7.446,-5.171 -13.812,-10.758 -19.088,-16.763c-5.279,-6 -9.417,-12.463 -12.417,-19.4c-3,-6.929 -4.5,-14.433 -4.5,-22.5c0,-12.829 3.15,-25.037 9.467,-36.629c6.308,-11.583 15.054,-20.796 26.225,-27.625c11.179,-6.829 24.312,-10.242 39.421,-10.242c14.692,0 27.883,3.058 39.575,9.158c11.692,6.108 21.571,13.608 29.642,22.504l-18.933,38.487c-7.038,-7.654 -14.175,-13.658 -21.417,-18c-7.246,-4.35 -14.075,-6.525 -20.483,-6.525c-4.767,0 -8.8,0.933 -12.108,2.796c-3.312,1.863 -5.896,4.45 -7.758,7.758c-1.863,3.317 -2.796,6.829 -2.796,10.554c0,3.317 0.825,6.417 2.483,9.312c1.654,2.904 3.983,5.85 6.987,8.846c2.996,3.004 6.875,6.158 11.638,9.467l5.275,3.725c11.796,9.108 20.742,18.421 26.85,27.933c6.1,9.521 9.158,20.387 9.158,32.592c0,13.454 -3.058,25.867 -9.158,37.25c-6.108,11.379 -15.054,20.483 -26.85,27.312c-11.792,6.829 -25.246,10.242 -40.346,10.242c-16.142,0 -30.729,-3.525 -43.767,-10.554" style="fill:#fff212;fill-rule:nonzero;"/><path d="M2002.57,1032.692l76.667,0c13.446,0 24.875,2.642 34.296,7.917c9.417,5.271 16.604,12.675 21.571,22.192c4.967,9.521 7.45,20.792 7.45,33.833c0,16.137 -3.362,30.987 -10.087,44.537c-6.729,13.558 -16.196,24.263 -28.4,32.125c-12.213,7.867 -26.8,11.792 -43.767,11.792l-54.317,0l6.829,-41.588l42.525,0c7.029,0 12.771,-2.067 17.221,-6.208c4.45,-4.138 7.767,-9.308 9.938,-15.521c2.171,-6.208 3.258,-12.825 3.258,-19.862c0,-8.479 -1.971,-14.792 -5.9,-18.933c-3.929,-4.138 -9.312,-6.208 -16.137,-6.208l-34.142,0l24.829,-14.9l-34.763,196.787l-56.8,0l39.729,-225.962Z" style="fill:#fff212;fill-rule:nonzero;"/><path d="M2242.028,1197.353c6.312,-13.35 11.017,-28.812 14.121,-46.404c3.104,-17.587 4.654,-31.971 4.654,-43.146c0,-7.029 -0.775,-13.083 -2.325,-18.154c-1.55,-5.071 -3.679,-8.946 -6.362,-11.642c-2.692,-2.688 -6.517,-4.033 -11.483,-4.033c-9.108,0 -16.971,6.675 -23.592,20.017c-6.625,13.35 -11.383,28.713 -14.279,46.096c-2.9,17.383 -4.342,31.971 -4.342,43.767c0,6.829 0.667,12.775 2.017,17.846c1.342,5.071 3.412,8.954 6.208,11.638c2.792,2.692 6.362,4.033 10.704,4.033c10.138,0 18.363,-6.671 24.679,-20.017m-67.2,54.158c-11.592,-7.237 -20.225,-17.637 -25.917,-31.188c-5.692,-13.554 -8.533,-29.75 -8.533,-48.579c0,-20.275 3.308,-41.537 9.929,-63.783c6.621,-22.242 17.642,-40.971 33.058,-56.183c15.408,-15.204 35.121,-22.812 59.125,-22.812c16.346,0 30.213,3.571 41.596,10.712c11.379,7.138 20.017,17.537 25.912,31.192c5.9,13.658 8.85,29.796 8.85,48.421c0,20.071 -3.367,41.229 -10.092,63.475c-6.721,22.246 -17.742,41.075 -33.054,56.488c-15.317,15.417 -35.179,23.125 -59.592,23.125c-15.938,0 -29.696,-3.625 -41.283,-10.867" style="fill:#fff212;fill-rule:nonzero;"/><path d="M2389.925,1145.054l52.454,-2.483l24.521,116.083l-56.492,0l-20.483,-113.6Zm-40.971,-112.362l79.771,0c13.033,0 24.367,2.433 33.983,7.296c9.625,4.862 16.917,12.054 21.883,21.571c4.967,9.521 7.45,20.487 7.45,32.9c0,15.729 -3.467,30.004 -10.396,42.833c-6.938,12.833 -16.762,22.967 -29.492,30.421c-12.721,7.446 -26.95,11.171 -42.675,11.171l-57.421,0l7.758,-41.279l45.008,0c10.137,0 17.637,-3.463 22.5,-10.4c4.858,-6.929 7.296,-15.875 7.296,-26.846c0,-7.862 -1.812,-13.763 -5.429,-17.696c-3.625,-3.925 -9.158,-5.896 -16.608,-5.896l-34.762,0l22.967,-14.9l-34.763,196.787l-56.8,0l39.729,-225.962Z" style="fill:#fff212;fill-rule:nonzero;"/><path d="M2541.396,1056.591l57.108,0l-35.692,202.062l-57.112,0l35.696,-202.062Zm-36.625,-23.9l138.121,0l-8.071,45.008l-137.812,0l7.762,-45.008Z" style="fill:#fff212;fill-rule:nonzero;"/><path d="M2663.685,1121.773l90.942,0l-7.758,43.454l-90.633,0l7.45,-43.454Zm-11.483,-89.079l124.462,0l-7.758,45.004l-87.838,0l23.275,-17.692l-30.417,171.646l-16.763,-18.008l89.392,0l-8.071,45.008l-126.013,0l39.729,-225.958Z" style="fill:#fff212;fill-rule:nonzero;"/><path d="M2777.595,1251.824c-13.037,-7.029 -22.658,-15.412 -28.867,-25.142l18.938,-39.108c6.617,8.279 14.117,15.208 22.5,20.796c8.383,5.588 16.188,8.383 23.433,8.383c4.758,0 8.95,-0.933 12.571,-2.796c3.621,-1.863 6.467,-4.446 8.538,-7.758c2.067,-3.312 3.1,-7.033 3.1,-11.175c0,-4.758 -1.858,-9.567 -5.583,-14.433c-3.729,-4.858 -9.213,-9.979 -16.45,-15.362l-5.279,-3.104c-7.446,-5.171 -13.812,-10.758 -19.088,-16.763c-5.279,-6 -9.417,-12.463 -12.417,-19.4c-3,-6.929 -4.5,-14.433 -4.5,-22.5c0,-12.829 3.15,-25.037 9.467,-36.629c6.308,-11.583 15.054,-20.796 26.225,-27.625c11.179,-6.829 24.312,-10.242 39.421,-10.242c14.692,0 27.883,3.058 39.575,9.158c11.692,6.108 21.571,13.608 29.642,22.504l-18.933,38.487c-7.037,-7.654 -14.175,-13.658 -21.417,-18c-7.246,-4.35 -14.075,-6.525 -20.483,-6.525c-4.767,0 -8.8,0.933 -12.108,2.796c-3.312,1.863 -5.896,4.45 -7.758,7.758c-1.863,3.317 -2.796,6.829 -2.796,10.554c0,3.317 0.825,6.417 2.483,9.312c1.654,2.904 3.983,5.85 6.987,8.846c2.996,3.004 6.875,6.158 11.638,9.467l5.275,3.725c11.796,9.108 20.742,18.421 26.85,27.933c6.1,9.521 9.158,20.387 9.158,32.592c0,13.454 -3.058,25.867 -9.158,37.25c-6.108,11.379 -15.054,20.483 -26.85,27.312c-11.792,6.829 -25.246,10.242 -40.346,10.242c-16.142,0 -30.729,-3.525 -43.767,-10.554" style="fill:#fff212;fill-rule:nonzero;"/><path d="M1198.379,1291.347l57.112,0l-35.696,201.75l-16.142,-22.033l71.079,0l-8.071,46.246l-108.013,0l39.729,-225.963Z" style="fill:#fff212;fill-rule:nonzero;"/><path d="M1310.274,1510.635c-11.692,-6.929 -19.917,-16.654 -24.675,-29.179c-4.763,-12.517 -5.692,-26.846 -2.796,-42.987l25.767,-147.121l57.108,0l-27.625,154.879c-1.242,7.871 -0.204,14.542 3.104,20.025c3.308,5.483 8.896,8.225 16.762,8.225c6,0 11.175,-2.175 15.521,-6.521c4.342,-4.346 7.237,-10.446 8.688,-18.312l27.625,-158.296l52.146,0l-28.246,160.467c-2.483,14.075 -7.292,26.383 -14.433,36.938c-7.137,10.554 -16.346,18.575 -27.625,24.054c-11.275,5.483 -23.742,8.229 -37.4,8.229c-17.588,0 -32.229,-3.471 -43.921,-10.4" style="fill:#fff212;fill-rule:nonzero;"/><path d="M1439.395,1517.619c-8.383,-2.279 -14.742,-4.654 -19.088,-7.142l13.967,-39.725c3.517,1.242 6.721,2.375 9.621,3.412c2.896,1.037 6.1,1.55 9.625,1.55c6,0 10.963,-2.175 14.896,-6.517c3.929,-4.346 6.621,-10.862 8.071,-19.554l27.933,-158.296l57.425,0l-28.558,163.262c-3.929,21.525 -11.796,37.971 -23.592,49.35c-11.792,11.379 -26.587,17.071 -44.383,17.071c-8.9,0 -17.533,-1.138 -25.917,-3.412" style="fill:#fff212;fill-rule:nonzero;"/><path d="M1565.56,1434.744l97.771,0l-7.45,41.592l-98.079,0l7.758,-41.592Zm46.246,-143.396l72.946,0l12.412,225.958l-56.492,0l-1.862,-206.717l9.312,0l-75.117,206.717l-52.763,0l91.562,-225.958Z" style="fill:#fff212;fill-rule:nonzero;"/><path d="M1706.789,1291.347l57.421,0l1.862,204.233l-14.588,0l73.558,-204.233l52.15,0l-91.879,225.963l-66.421,0l-12.104,-225.963Z" style="fill:#fff212;fill-rule:nonzero;"/></g></svg>